<svg width="28" height="28" viewBox="0 0 28 28" fill="none" xmlns="http://www.w3.org/2000/svg">
<path fill-rule="evenodd" clip-rule="evenodd" d="M14 28C21.732 28 28 21.732 28 14C28 6.26801 21.732 0 14 0C6.26801 0 0 6.26801 0 14C0 21.732 6.26801 28 14 28ZM23.6667 9.24273C23.6667 8.00453 22.6216 7 21.3333 7H7.33333C6.04511 7 5 8.00453 5 9.24273V18.2137C5 19.4519 6.04511 20.4564 7.33333 20.4564H21.3333C22.6216 20.4564 23.6667 19.4519 23.6667 18.2137V9.24273ZM7.33333 8.49516H21.3333C21.7624 8.49516 22.1111 8.83028 22.1111 9.24273V9.57993L14.3333 14.3372L6.55556 9.57993V9.24273C6.55556 8.83028 6.90422 8.49516 7.33333 8.49516ZM14.3333 16.1095L22.1111 11.3522V18.2137C22.1111 18.6261 21.7624 18.9613 21.3333 18.9613H7.33333C6.90422 18.9613 6.55556 18.6261 6.55556 18.2137V11.3522L14.3333 16.1095Z" fill="#CECECE"/>
</svg>
