<svg width="50" height="50" viewBox="0 0 50 50" fill="none" xmlns="http://www.w3.org/2000/svg">
<g clip-path="url(#clip0_974_2502)">
<path fill-rule="evenodd" clip-rule="evenodd" d="M25 50C38.8069 50 50 38.8069 50 25C50 11.1931 38.8069 0 25 0C11.1931 0 0 11.1931 0 25C0 38.8069 11.1931 50 25 50ZM23.7693 32.3874C24.111 32.3874 24.4513 32.2624 24.7193 32.011C25.279 31.486 25.3068 30.6068 24.7818 30.0471L18.0624 22.8818L20.586 20.3485C21.1276 19.804 21.1262 18.9249 20.5818 18.3832C20.0387 17.8415 19.1596 17.8429 18.6179 18.3874L15.1457 21.8735C14.6179 22.404 14.6054 23.2568 15.1165 23.8026L22.7554 31.9485C23.029 32.2401 23.3985 32.3874 23.7693 32.3874ZM32.2707 14.7582L39.1804 21.6679C39.7012 22.1874 39.7193 23.0249 39.2221 23.5665L26.0124 37.9776C25.4679 38.5721 24.5318 38.5721 23.9874 37.9776L10.7776 23.5665C10.2804 23.0249 10.2999 22.1874 10.8193 21.6679L17.729 14.7582C17.986 14.4999 18.336 14.3554 18.7013 14.3554H24.9999H31.2999C31.6637 14.3554 32.0137 14.4999 32.2707 14.7582Z" fill="#B85F49"/>
</g>
<defs>
<clipPath id="clip0_974_2502">
<rect width="50" height="50" fill="white"/>
</clipPath>
</defs>
</svg>
