<svg width="50" height="50" viewBox="0 0 50 50" fill="none" xmlns="http://www.w3.org/2000/svg">
<g clip-path="url(#clip0_974_2501)">
<path fill-rule="evenodd" clip-rule="evenodd" d="M25 50C38.8069 50 50 38.8069 50 25C50 11.1931 38.8069 0 25 0C11.1931 0 0 11.1931 0 25C0 38.8069 11.1931 50 25 50ZM25 8.33333C17.3294 8.33333 11.1111 14.5516 11.1111 22.2222V29.7222C11.1111 32.7905 13.5984 35.2778 16.6667 35.2778H18.0556C18.8226 35.2778 19.4444 34.656 19.4444 33.8889V25C19.4444 24.2329 18.8226 23.6111 18.0556 23.6111H13.8889V22.2222C13.8889 16.0857 18.8635 11.1111 25 11.1111C31.1365 11.1111 36.1111 16.0857 36.1111 22.2222V23.6111H31.9444C31.1774 23.6111 30.5556 24.2329 30.5556 25V33.8889C30.5556 34.656 31.1774 35.2778 31.9444 35.2778H33.3333C33.8303 35.2778 34.3121 35.2125 34.7705 35.0901C33.7231 36.7021 32.1334 37.9292 30.2599 38.513C29.8958 37.9061 29.2314 37.5 28.4722 37.5H25.6944C24.5439 37.5 23.6111 38.4327 23.6111 39.5833C23.6111 40.7339 24.5439 41.6667 25.6944 41.6667H28.4722C28.6522 41.6667 28.8269 41.6438 28.9935 41.6009C34.5581 40.9954 38.8889 36.2812 38.8889 30.5556V22.2222C38.8889 14.5516 32.6706 8.33333 25 8.33333Z" fill="#B85F49"/>
</g>
<defs>
<clipPath id="clip0_974_2501">
<rect width="50" height="50" fill="white"/>
</clipPath>
</defs>
</svg>
