<svg width="52" height="50" viewBox="0 0 52 50" fill="none" xmlns="http://www.w3.org/2000/svg">
<rect x="7" y="6" width="38" height="38" rx="6" fill="white"/>
<path fill-rule="evenodd" clip-rule="evenodd" d="M13 0C5.8203 0 0 5.8203 0 13V37C0 44.1797 5.8203 50 13 50H39C46.1797 50 52 44.1797 52 37V13C52 5.8203 46.1797 0 39 0H13ZM45 25C45 35.4933 36.4933 44 26 44C15.5067 44 7 35.4933 7 25C7 14.5067 15.5067 6 26 6C36.4933 6 45 14.5067 45 25ZM15.4444 22.8889C15.4444 17.0592 20.1703 12.3333 26 12.3333C31.8297 12.3333 36.5556 17.0592 36.5556 22.8889V29.2222C36.5556 33.5737 33.2641 37.1565 29.035 37.6167C28.9084 37.6493 28.7757 37.6667 28.6389 37.6667H26.5278C25.6533 37.6667 24.9444 36.9578 24.9444 36.0833C24.9444 35.2089 25.6533 34.5 26.5278 34.5H28.6389C29.2159 34.5 29.7208 34.8086 29.9975 35.2699C31.4214 34.8262 32.6296 33.8936 33.4256 32.6685C33.0772 32.7615 32.7111 32.8111 32.3333 32.8111H31.2778C30.6948 32.8111 30.2222 32.3385 30.2222 31.7556V25C30.2222 24.417 30.6948 23.9444 31.2778 23.9444H34.4444V22.8889C34.4444 18.2252 30.6637 14.4444 26 14.4444C21.3363 14.4444 17.5556 18.2252 17.5556 22.8889V23.9444H20.7222C21.3052 23.9444 21.7778 24.417 21.7778 25V31.7556C21.7778 32.3385 21.3052 32.8111 20.7222 32.8111H19.6667C17.3348 32.8111 15.4444 30.9208 15.4444 28.5889V22.8889Z" fill="#B85F49"/>
</svg>
