<svg width="50" height="50" viewBox="0 0 50 50" fill="none" xmlns="http://www.w3.org/2000/svg">
<g clip-path="url(#clip0_974_2503)">
<path fill-rule="evenodd" clip-rule="evenodd" d="M25 50C38.8071 50 50 38.8071 50 25C50 11.1929 38.8071 0 25 0C11.1929 0 0 11.1929 0 25C0 38.8071 11.1929 50 25 50ZM29.714 14.4362C30.2274 14.9496 30.397 15.7139 30.1488 16.3963L27.8646 22.6779C27.817 22.8087 27.8868 22.953 28.0188 22.997L29.1732 23.3818C29.5517 23.508 29.9603 23.3004 30.0815 22.9203L30.7569 20.8031C30.7569 20.8031 31.8711 17.3807 31.9606 17.1961C35.6535 19.4411 38.1643 23.443 38.3251 28.0499L38.3333 28.5188V29.4444H39.7222C40.7961 29.4444 41.6667 30.315 41.6667 31.3889C41.6667 32.4628 40.7961 33.3333 39.7222 33.3333H10.2778C9.20389 33.3333 8.33333 32.4628 8.33333 31.3889C8.33333 30.315 9.20389 29.4444 10.2778 29.4444H11.6667V28.5188C11.6667 23.7031 14.2375 19.4877 18.0816 17.1704C18.1799 17.1112 19.2568 20.5523 19.2568 20.5523L19.8325 22.5487C19.9997 23.1283 20.6156 23.4522 21.1878 23.2615C21.7545 23.0726 22.0537 22.4534 21.8496 21.892L19.8512 16.3963C19.603 15.7139 19.7726 14.9496 20.286 14.4362C20.6364 14.0858 21.1118 13.8889 21.6074 13.8889H28.3926C28.8882 13.8889 29.3636 14.0858 29.714 14.4362Z" fill="#B85F49"/>
</g>
<defs>
<clipPath id="clip0_974_2503">
<rect width="50" height="50" fill="white"/>
</clipPath>
</defs>
</svg>
