<svg width="115" height="72" viewBox="0 0 115 72" fill="none" xmlns="http://www.w3.org/2000/svg">
<g clip-path="url(#clip0_745_1363)">
<mask id="mask0_745_1363" style="mask-type:luminance" maskUnits="userSpaceOnUse" x="0" y="0" width="115" height="72">
<path d="M115 0H0V72H115V0Z" fill="white"/>
</mask>
<g mask="url(#mask0_745_1363)">
<path d="M111.674 26.8893C111.674 26.8063 111.671 26.7263 111.666 26.6434C111.66 26.5278 111.651 26.4152 111.642 26.3055C111.642 26.2789 111.636 26.2552 111.636 26.2255C111.633 26.19 111.633 26.1455 111.627 26.11C111.612 25.9203 111.604 25.7307 111.586 25.538C111.58 25.5203 111.58 25.5054 111.58 25.4877C111.571 25.3958 111.556 25.298 111.542 25.2032C111.524 25.055 111.506 24.9098 111.485 24.7676L111.471 24.655C111.465 24.5809 111.456 24.5098 111.447 24.4416C111.441 24.4238 111.438 24.4031 111.438 24.3823C111.429 24.3171 111.42 24.252 111.406 24.1868C111.391 24.1216 111.382 24.0534 111.37 23.9882C111.361 23.9378 111.352 23.8815 111.344 23.8252C111.338 23.7926 111.335 23.76 111.329 23.7274C111.305 23.603 111.285 23.4756 111.261 23.3511V23.3452C111.255 23.3274 111.252 23.3096 111.246 23.2889C111.205 23.0696 111.155 22.8473 111.101 22.6281L111.06 22.4473C111.051 22.388 111.034 22.3258 111.019 22.2665C110.969 22.0561 110.912 21.8546 110.853 21.6502C110.847 21.6235 110.839 21.5998 110.836 21.5761C110.812 21.502 110.794 21.4279 110.771 21.3538C110.756 21.2975 110.744 21.2412 110.723 21.1879C110.673 21.0308 110.623 20.8678 110.567 20.7049C110.552 20.6574 110.537 20.613 110.526 20.5656C110.52 20.5656 110.52 20.5626 110.52 20.5567C110.487 20.4589 110.461 20.3611 110.422 20.2633C110.407 20.2159 110.396 20.1715 110.375 20.1181C110.36 20.0855 110.351 20.0529 110.336 20.0203C110.313 19.9551 110.292 19.8959 110.269 19.8336C110.233 19.7418 110.201 19.6469 110.162 19.5551C110.097 19.3921 110.038 19.2262 109.967 19.0632C109.961 19.0484 109.953 19.0306 109.95 19.0158C109.908 18.918 109.867 18.8202 109.82 18.7224C109.802 18.675 109.778 18.6246 109.761 18.5772C109.684 18.4053 109.613 18.2423 109.533 18.0764C109.483 17.9756 109.436 17.8719 109.385 17.7712C109.362 17.7208 109.335 17.6704 109.312 17.6171C109.208 17.4185 109.111 17.2229 109.007 17.0244C108.999 17.0066 108.99 16.9918 108.978 16.974C108.945 16.9148 108.913 16.8585 108.88 16.7962C108.857 16.7547 108.833 16.7162 108.812 16.6747C108.697 16.4673 108.582 16.2569 108.455 16.0524C108.446 16.0346 108.437 16.0198 108.429 16.005C108.411 15.9783 108.396 15.9546 108.381 15.925C108.34 15.8657 108.299 15.8005 108.26 15.7353C108.13 15.5279 107.997 15.3175 107.864 15.113C107.794 15.0123 107.72 14.9086 107.652 14.8078C107.605 14.7426 107.56 14.6745 107.513 14.6093C107.469 14.5441 107.421 14.4789 107.371 14.4137C107.33 14.3426 107.277 14.2804 107.232 14.2152C107.182 14.15 107.129 14.0848 107.085 14.0196C107.043 13.9692 107.005 13.9218 106.97 13.8744C106.831 13.6936 106.698 13.5158 106.553 13.3439V13.338C106.497 13.2728 106.444 13.2047 106.382 13.1395C106.314 13.0595 106.249 12.9824 106.184 12.9083C106.069 12.775 105.954 12.6327 105.832 12.5053V12.4994C105.652 12.3038 105.475 12.1142 105.286 11.9245C105.215 11.8445 105.141 11.7704 105.067 11.6963L105.059 11.6874C105.059 11.6874 105.053 11.6815 105.05 11.6786C104.79 11.4178 104.521 11.1629 104.249 10.911C104.116 10.7896 103.981 10.6799 103.848 10.5643C103.7 10.4399 103.561 10.3095 103.414 10.188C103.236 10.0458 103.062 9.90945 102.885 9.7761C102.817 9.71979 102.752 9.66941 102.681 9.61904C102.654 9.59533 102.622 9.56866 102.589 9.54496C102.575 9.53607 102.56 9.52125 102.548 9.51236C102.38 9.39086 102.214 9.27529 102.052 9.15972C102.019 9.13602 101.987 9.11231 101.949 9.0886C101.845 9.01452 101.745 8.94044 101.644 8.86932C101.565 8.81894 101.488 8.76856 101.402 8.71522C101.19 8.57298 100.968 8.43371 100.744 8.29739C100.729 8.2885 100.72 8.27961 100.708 8.27369C100.617 8.21738 100.519 8.16108 100.428 8.1107C100.315 8.03958 100.206 7.98032 100.094 7.91512C99.9875 7.85882 99.89 7.80252 99.7896 7.74918C99.7748 7.74029 99.7571 7.7314 99.7423 7.72251C99.6124 7.65139 99.4795 7.58323 99.3495 7.51804C99.2845 7.48544 99.2166 7.44988 99.1487 7.41729C99.1073 7.39951 99.066 7.37876 99.0276 7.35506C98.9478 7.31357 98.8711 7.27505 98.7884 7.23949C98.7706 7.2306 98.7559 7.22171 98.7411 7.21578C98.558 7.13281 98.3749 7.04687 98.1917 6.9639C98.1415 6.94019 98.0884 6.91648 98.0382 6.8987C97.9466 6.85722 97.858 6.81573 97.7664 6.77721C97.7487 6.76832 97.731 6.75943 97.7103 6.7535C97.5479 6.68831 97.3825 6.62311 97.2201 6.55792C97.1728 6.54014 97.1314 6.52532 97.0871 6.50754C96.9217 6.44235 96.7534 6.38308 96.5821 6.32085C96.461 6.27937 96.3429 6.23788 96.2247 6.19936C96.21 6.19343 96.1922 6.19047 96.1775 6.18158C96.0062 6.12527 95.8349 6.06897 95.6636 6.01859C95.6488 6.01563 95.634 6.0097 95.6222 6.00378C95.6134 6.00081 95.6045 5.99489 95.5956 5.99489C95.4657 5.95933 95.3357 5.9208 95.2058 5.88228C95.1644 5.86746 95.1172 5.85857 95.0758 5.84672C94.9104 5.79931 94.7391 5.75486 94.5678 5.71337C94.5531 5.71041 94.5353 5.70448 94.5206 5.69855C94.3965 5.67188 94.2754 5.64225 94.1543 5.61558L94.0864 5.60076C93.9062 5.55335 93.7202 5.51186 93.5341 5.4763C93.5105 5.47334 93.4898 5.46742 93.4662 5.46149C93.4573 5.46149 93.4484 5.45556 93.4366 5.45556C93.3687 5.44075 93.3037 5.43186 93.2328 5.42C92.6924 5.31629 92.146 5.23331 91.5907 5.17405C91.4844 5.15923 91.3721 5.14738 91.2629 5.13849C91.2392 5.13256 91.2127 5.13256 91.189 5.13256C91.0207 5.11478 90.8523 5.09996 90.681 5.09107C90.5599 5.08218 90.4359 5.07329 90.3148 5.0644C90.2734 5.0644 90.2321 5.05848 90.1937 5.05551H90.1612C89.411 5.01995 88.6638 5.01995 87.9166 5.05551C87.8604 5.05551 87.8102 5.05848 87.7541 5.0644C87.6567 5.06737 87.5562 5.07922 87.4588 5.08811C87.4351 5.08811 87.4174 5.09404 87.3938 5.09404C87.1989 5.10885 87.0039 5.12071 86.8149 5.14145C86.7322 5.15034 86.6525 5.15923 86.5698 5.16812C86.431 5.18294 86.2921 5.20072 86.1533 5.2185C86.112 5.22442 86.0647 5.22739 86.0234 5.23331C85.92 5.24813 85.8196 5.25702 85.7221 5.2748C85.663 5.28073 85.604 5.28962 85.5479 5.30147C85.409 5.31925 85.2702 5.34296 85.1373 5.37259C85.0221 5.39037 84.901 5.40815 84.7888 5.43186C84.7386 5.44075 84.6854 5.44964 84.6352 5.45853C84.393 5.50594 84.1597 5.56224 83.9175 5.61558C83.9087 5.61558 83.8939 5.62151 83.885 5.62151C83.8348 5.6304 83.7876 5.64521 83.7374 5.65707C83.6872 5.66596 83.631 5.68077 83.5808 5.69559C83.572 5.69559 83.5631 5.69559 83.5572 5.70152C83.3268 5.76078 83.0994 5.82301 82.8661 5.88821C82.7539 5.9208 82.6387 5.9534 82.5235 5.986C82.3906 6.02748 82.2606 6.06897 82.1307 6.11046C82.0332 6.14305 81.9416 6.16972 81.8471 6.20232C81.7054 6.24973 81.5607 6.29418 81.4159 6.34752C81.3923 6.35641 81.3716 6.3653 81.348 6.37716C81.1826 6.43642 81.0143 6.50162 80.8518 6.56385C80.6894 6.62904 80.524 6.69423 80.3615 6.75943C80.2729 6.79499 80.1902 6.83351 80.1016 6.87203C80.0839 6.88092 80.0691 6.88685 80.0514 6.89574C79.9953 6.91945 79.9362 6.94612 79.8801 6.96982C79.821 6.99649 79.759 7.0202 79.7029 7.0528C79.5818 7.1091 79.4578 7.15948 79.3337 7.22171C79.1949 7.2869 79.062 7.35506 78.9232 7.42618C78.9143 7.4321 78.9055 7.43507 78.8996 7.43507C78.8021 7.48544 78.7105 7.53286 78.619 7.58027C78.5245 7.63065 78.43 7.67806 78.3354 7.72843C78.2144 7.79363 78.0992 7.86178 77.9781 7.92698C77.9042 7.96846 77.8304 8.00995 77.7507 8.05144C77.6916 8.087 77.6266 8.12552 77.5646 8.15812C77.4966 8.1996 77.4317 8.23813 77.3608 8.27961C77.2545 8.34481 77.1481 8.41296 77.0448 8.47816C76.9059 8.56113 76.7671 8.65596 76.6342 8.74189C76.5899 8.76856 76.5427 8.7982 76.5013 8.82487C76.4777 8.83968 76.4511 8.85746 76.4275 8.87228C76.3271 8.94636 76.2237 9.02045 76.1174 9.09157C75.9224 9.23084 75.7246 9.37012 75.5296 9.51532C75.4144 9.60422 75.3022 9.69312 75.187 9.77906C75.0098 9.91833 74.8356 10.0517 74.6643 10.191C74.6141 10.2265 74.5668 10.2739 74.5166 10.3154C74.4605 10.3628 74.4043 10.4132 74.3453 10.4636C74.3394 10.4695 74.3305 10.4725 74.3276 10.4814C73.0753 11.5571 71.9352 12.7661 70.9429 14.0877C66.805 8.59076 60.2453 5.03477 52.8527 5.03477L45.8884 5.02588V14.5382H52.8527C55.694 14.5382 58.3256 15.439 60.4787 16.974C62.6347 18.5061 64.3093 20.6752 65.2338 23.2029H52.265V32.6945H65.0949C63.1486 37.5632 58.3994 41.0037 52.8527 41.0037H40.1025V5.04366H30.6395V23.0222H15.2401V5.04366H5.78003V41.1815C5.78003 46.3288 9.93559 50.4982 15.0599 50.4982H15.2401V32.5196H30.6514V50.4982H52.8646C56.5623 50.4982 60.0504 49.6121 63.1309 48.0327C66.2114 46.4532 68.8872 44.1952 70.9547 41.4452C71.9471 42.7668 73.0901 43.967 74.3423 45.0427C74.4546 45.1405 74.5638 45.2382 74.682 45.336C74.7647 45.4101 74.8533 45.4783 74.9419 45.5435C75.125 45.6916 75.3111 45.8309 75.4971 45.9732C75.5149 45.985 75.5326 45.9998 75.5503 46.0117C75.5503 46.0117 75.5562 46.0146 75.5592 46.0176C75.7511 46.1598 75.9461 46.2962 76.141 46.4325C76.2444 46.5036 76.3448 46.5777 76.4452 46.6458C76.5486 46.717 76.649 46.7851 76.7553 46.8503C76.9591 46.9896 77.1688 47.12 77.3815 47.2444C77.7004 47.44 78.0194 47.6267 78.3473 47.7986C79.0029 48.1571 79.6822 48.4801 80.3793 48.7646C80.5417 48.8298 80.7071 48.895 80.8695 48.9602C81.0586 49.0313 81.2446 49.1054 81.4307 49.1676C81.5784 49.218 81.7231 49.2684 81.8708 49.3158C82.0775 49.3839 82.2872 49.4551 82.4999 49.5203C82.6298 49.5588 82.7598 49.5943 82.8897 49.6329C83.1171 49.6981 83.3446 49.7573 83.5749 49.8196C83.696 49.8462 83.8142 49.8759 83.9412 49.9025C84.1774 49.9588 84.4137 50.0151 84.653 50.0596C84.777 50.0833 84.904 50.1011 85.0281 50.1248C85.2643 50.1663 85.5006 50.2137 85.7398 50.2463C85.8846 50.27 86.0263 50.2818 86.1711 50.3026C86.3896 50.3292 86.6111 50.3589 86.8326 50.3826C87.0217 50.4004 87.2166 50.4152 87.4115 50.43C87.5828 50.4389 87.7571 50.4567 87.9343 50.4685C93.9889 50.7649 100.144 48.6402 104.822 44.0796C104.905 43.9996 104.988 43.9225 105.073 43.8396C105.652 43.2587 106.193 42.6542 106.692 42.029C106.866 41.8097 107.043 41.5874 107.212 41.3593C107.383 41.137 107.545 40.9088 107.702 40.6777C107.85 40.4703 107.994 40.2539 108.127 40.0376C108.151 40.0109 108.169 39.9813 108.183 39.9487C108.316 39.7413 108.449 39.5309 108.573 39.3175C108.73 39.0567 108.877 38.793 109.016 38.5233C109.14 38.2952 109.258 38.067 109.374 37.8418C109.495 37.5869 109.613 37.3321 109.728 37.0713C109.843 36.8254 109.95 36.5705 110.053 36.3186C110.124 36.1468 110.186 35.9749 110.251 35.803C110.283 35.7111 110.319 35.6163 110.354 35.5185C110.41 35.3644 110.466 35.2133 110.517 35.0533C110.67 34.6088 110.803 34.1613 110.924 33.7079C110.966 33.5687 110.998 33.4294 111.036 33.2901C111.134 32.8989 111.223 32.5048 111.296 32.1077C111.326 31.9685 111.352 31.8233 111.37 31.684C111.385 31.6247 111.4 31.5595 111.406 31.4943C111.429 31.361 111.447 31.2247 111.465 31.0913C111.494 30.9135 111.515 30.7328 111.539 30.5579C111.544 30.5342 111.544 30.5105 111.547 30.4898C111.571 30.2794 111.592 30.0719 111.612 29.8615C111.63 29.7045 111.639 29.5445 111.651 29.3844C111.666 29.2066 111.677 29.0318 111.683 28.8599C111.692 28.7058 111.698 28.5547 111.701 28.4006C111.707 28.1961 111.71 27.9917 111.71 27.7842V27.7754C111.71 27.479 111.701 27.1857 111.692 26.8923M88.3744 40.9829C88.2887 40.977 88.203 40.9711 88.1174 40.9622C88.0111 40.9562 87.8988 40.9503 87.7896 40.9414H87.7453C87.6271 40.9236 87.509 40.9059 87.3908 40.894C87.3022 40.8851 87.2136 40.8762 87.1309 40.8614C86.9921 40.8377 86.8592 40.814 86.7234 40.7933C86.6495 40.7784 86.5698 40.7666 86.4959 40.7518C86.3601 40.7251 86.2242 40.6955 86.0884 40.6629C86.0145 40.6451 85.9407 40.6303 85.8668 40.6125C85.7369 40.5799 85.6069 40.5443 85.477 40.5058C85.3972 40.4821 85.3204 40.4643 85.2407 40.4406C85.1226 40.4021 85.0015 40.3606 84.8833 40.3251C84.7947 40.2925 84.7091 40.2658 84.6205 40.2361C84.5141 40.1947 84.4078 40.1561 84.3015 40.1147C84.204 40.0732 84.1066 40.0346 84.0061 39.9991C83.9175 39.9576 83.826 39.9191 83.7374 39.8776C83.6251 39.8302 83.5159 39.7798 83.4095 39.7294C83.3327 39.6909 83.256 39.6553 83.1821 39.6168C83.061 39.5575 82.9429 39.4953 82.8247 39.4301C82.7598 39.3975 82.6948 39.359 82.6298 39.3234C82.5058 39.2523 82.3788 39.1842 82.2606 39.1101C82.2045 39.0775 82.1484 39.039 82.0893 39.0034C81.9653 38.9234 81.8383 38.8463 81.7142 38.7634C81.664 38.7278 81.6079 38.6893 81.5518 38.6508C81.4425 38.5737 81.3332 38.4937 81.221 38.4137C81.1619 38.3722 81.1058 38.3278 81.0497 38.2863C81.0379 38.2774 81.0261 38.2655 81.0143 38.2596C80.9404 38.2003 80.8666 38.1411 80.7927 38.0848C80.7366 38.0403 80.6835 37.9929 80.6273 37.9485C80.5949 37.9188 80.5594 37.8922 80.524 37.8625C80.5033 37.8447 80.4826 37.827 80.462 37.8092C80.4265 37.7766 80.3881 37.744 80.3527 37.7114C80.2345 37.6077 80.1194 37.504 80.0071 37.3973C79.9421 37.338 79.8772 37.2728 79.8122 37.2076C79.5582 36.9617 79.3219 36.6979 79.0915 36.4342C79.0915 36.4342 79.0905 36.4372 79.0886 36.4431C77.0802 34.1228 75.8693 31.0913 75.8693 27.7813C75.8693 24.4712 77.1009 21.4072 79.127 19.0809C79.2806 18.9002 79.4459 18.7283 79.6113 18.5505C80.0603 18.0853 80.5417 17.6585 81.0556 17.2644C81.2121 17.14 81.3746 17.0244 81.54 16.9059C81.5488 16.897 81.5636 16.8881 81.5754 16.8822C81.7526 16.7577 81.9328 16.6421 82.1159 16.5236C82.2843 16.4199 82.4496 16.3191 82.621 16.2213C82.6387 16.2124 82.6564 16.2036 82.6712 16.1947C82.8602 16.088 83.0551 15.9902 83.25 15.8924C83.445 15.7946 83.6429 15.7057 83.8407 15.6168C83.9884 15.5516 84.142 15.4924 84.2956 15.4301C84.3458 15.4064 84.4019 15.3886 84.458 15.3649C84.5968 15.3146 84.7357 15.2671 84.8745 15.2197C84.9542 15.1931 85.0369 15.1634 85.1167 15.1397C85.2968 15.0834 85.477 15.0271 85.6631 14.9827C85.6896 14.9738 85.7192 14.9649 85.7517 14.959C85.9525 14.9086 86.1533 14.8582 86.3571 14.8138C86.5757 14.7663 86.7972 14.7308 87.0187 14.6923C87.2402 14.6597 87.4617 14.6271 87.6891 14.6034C87.9107 14.5797 88.1381 14.5619 88.3684 14.553C88.5959 14.5382 88.8262 14.5352 89.0566 14.5352C89.5114 14.5352 89.9633 14.5589 90.4064 14.6063C90.6249 14.63 90.8464 14.6567 91.062 14.6893C91.2481 14.7189 91.4312 14.7486 91.6173 14.7871L91.7118 14.8049H91.7147C91.7502 14.8138 91.7856 14.8197 91.8211 14.8286C91.9983 14.8671 92.1725 14.9086 92.3438 14.953C92.4413 14.9767 92.5388 15.0034 92.6362 15.0301C92.7455 15.0627 92.8577 15.0953 92.97 15.1279C93.3805 15.2583 93.7851 15.4064 94.1721 15.5694C94.1868 15.5724 94.2045 15.5842 94.2193 15.5872C94.2695 15.6109 94.3256 15.6346 94.3758 15.6583C94.5649 15.7413 94.7509 15.8302 94.9311 15.9191C95.0049 15.9546 95.0788 15.9932 95.1467 16.0317C95.2589 16.0909 95.3682 16.1532 95.4804 16.2124C95.5218 16.2362 95.5602 16.2599 95.6015 16.2806C95.7256 16.3517 95.8467 16.4258 95.9707 16.4999C96.0357 16.5414 96.1007 16.5799 96.1657 16.6243C96.2661 16.6895 96.3694 16.7547 96.4669 16.8229C96.4728 16.8229 96.4728 16.8288 96.4758 16.8288C96.6087 16.9207 96.7445 17.0185 96.8774 17.1103C96.8922 17.1252 96.904 17.134 96.9188 17.1429C97.0428 17.2348 97.1639 17.3326 97.285 17.4304C97.4061 17.5222 97.5272 17.626 97.6424 17.7237C97.6572 17.7326 97.666 17.7474 97.6778 17.7563C97.8019 17.8689 97.9289 17.9786 98.0529 18.0942C98.0588 18.1001 98.0618 18.1001 98.0677 18.109C98.1888 18.2216 98.3069 18.3372 98.4251 18.4527C98.558 18.592 98.6938 18.7372 98.8267 18.8794C98.9006 18.9595 98.9656 19.0335 99.0305 19.1106C99.0807 19.1669 99.128 19.2262 99.1782 19.2825C99.2609 19.3891 99.3495 19.4958 99.4322 19.6025C99.4558 19.6321 99.4795 19.6618 99.5061 19.6944C99.5858 19.7951 99.6626 19.9018 99.7423 20.0114C99.9432 20.29 100.132 20.5715 100.306 20.8649C100.321 20.8827 100.333 20.9034 100.342 20.9241C100.348 20.9301 100.351 20.939 100.357 20.9419C100.504 21.1879 100.643 21.4398 100.779 21.6976C100.912 21.9583 101.039 22.228 101.16 22.5006L101.228 22.6666C101.293 22.8236 101.358 22.9807 101.417 23.1407C101.432 23.1822 101.446 23.2237 101.464 23.2652C101.509 23.4044 101.556 23.5437 101.603 23.6889C101.63 23.7689 101.659 23.8519 101.683 23.9349C101.692 23.9675 101.7 23.9941 101.709 24.0267C101.733 24.1097 101.757 24.1897 101.777 24.2727C101.807 24.3646 101.827 24.4624 101.851 24.5601C101.86 24.5779 101.866 24.6016 101.869 24.6253C101.892 24.732 101.913 24.8387 101.937 24.9454C101.954 25.0165 101.969 25.0787 101.984 25.1498C102.008 25.2654 102.025 25.3869 102.049 25.5084C102.067 25.6151 102.084 25.7218 102.099 25.8255C102.102 25.8403 102.102 25.8581 102.102 25.8759C102.111 25.9351 102.12 26.0003 102.129 26.0625C102.135 26.1129 102.144 26.1633 102.146 26.2166C102.155 26.2996 102.164 26.3856 102.176 26.4685C102.185 26.5722 102.194 26.673 102.2 26.7737C102.208 26.8864 102.217 26.996 102.223 27.1116C102.232 27.2923 102.238 27.479 102.238 27.6627V27.7872C102.238 27.965 102.235 28.1458 102.223 28.3206C102.223 28.3769 102.223 28.4273 102.217 28.4836C102.208 28.6525 102.194 28.8214 102.182 28.9903C102.164 29.18 102.146 29.3726 102.117 29.5563C102.102 29.6482 102.087 29.743 102.076 29.8289C102.058 29.9534 102.034 30.0808 102.011 30.2053C101.993 30.3209 101.969 30.4364 101.943 30.549C101.913 30.7031 101.878 30.8513 101.839 30.9995C101.801 31.1476 101.76 31.2958 101.718 31.444C101.695 31.524 101.674 31.601 101.647 31.6751C101.606 31.8144 101.565 31.9536 101.514 32.087C101.358 32.5552 101.169 33.0145 100.95 33.4649C100.894 33.5894 100.829 33.7198 100.761 33.8443C100.749 33.8768 100.735 33.9035 100.714 33.9361C100.625 34.108 100.534 34.2739 100.436 34.4428C100.407 34.4932 100.377 34.5406 100.348 34.591C100.268 34.7214 100.185 34.8547 100.103 34.9822C99.9697 35.1866 99.8339 35.3852 99.6862 35.5808C99.5799 35.7289 99.4677 35.8741 99.3525 36.0164C99.2432 36.1556 99.1251 36.2949 99.0069 36.4283C98.9272 36.5261 98.8445 36.6179 98.7559 36.7128C98.6318 36.8461 98.5048 36.9824 98.3778 37.1128C98.239 37.2521 98.1002 37.3825 97.9614 37.5129C97.8639 37.6018 97.7664 37.6907 97.669 37.7736C97.4918 37.9277 97.3175 38.07 97.1374 38.2092C96.1657 38.9708 95.1142 39.5753 94.0155 40.0198C92.4295 40.6658 90.7401 40.9888 89.0507 40.9888C88.9385 40.9888 88.8351 40.9859 88.7258 40.9859C88.6047 40.9829 88.4836 40.974 88.3625 40.9681" fill="#AD442A"/>
<path d="M33.9798 61.9719C34.606 61.9719 35.1376 62.0401 35.5747 62.1764C36.0118 62.3127 36.3662 62.4964 36.6409 62.7276C36.9156 62.9587 37.1135 63.2254 37.2375 63.5307C37.3616 63.8359 37.4236 64.1559 37.4236 64.4937C37.4236 64.9293 37.3468 65.3294 37.1903 65.688C37.0367 66.0465 36.8093 66.3547 36.5169 66.6096C36.2215 66.8644 35.8612 67.0629 35.4359 67.2052C35.0106 67.3474 34.5233 67.4185 33.9828 67.4185H30.666V58.3359H37.078V59.9124H32.7659V61.969H33.9828L33.9798 61.9719ZM33.9798 65.8302C34.2575 65.8302 34.4849 65.8006 34.6621 65.7354C34.8393 65.6731 34.9811 65.5902 35.0815 65.4835C35.1819 65.3768 35.2528 65.2583 35.2912 65.1249C35.3296 64.9916 35.3473 64.8523 35.3473 64.7071C35.3473 64.5411 35.3296 64.3871 35.2912 64.2448C35.2528 64.1026 35.1849 63.9811 35.0815 63.8803C34.9811 63.7796 34.8393 63.6996 34.6621 63.6433C34.4849 63.587 34.2545 63.5603 33.9798 63.5603H32.763V65.8302H33.9798Z" fill="#575452"/>
<path d="M49.8875 62.1232C49.9614 61.5631 50.1149 61.0446 50.3483 60.5704C50.5816 60.0963 50.8828 59.6873 51.2579 59.3406C51.633 58.9939 52.0731 58.7243 52.5781 58.5287C53.0832 58.3331 53.6444 58.2383 54.2616 58.2383C54.9439 58.2383 55.5612 58.3568 56.1076 58.5939C56.654 58.8309 57.1177 59.1569 57.4987 59.5718C57.8797 59.9866 58.1721 60.4786 58.3788 61.0446C58.5826 61.6105 58.686 62.221 58.686 62.8789C58.686 63.5367 58.5826 64.1472 58.3788 64.7102C58.175 65.2762 57.8797 65.7681 57.4987 66.1859C57.1177 66.6038 56.654 66.9297 56.1076 67.1668C55.5612 67.4039 54.9468 67.5224 54.2616 67.5224C53.6532 67.5224 53.098 67.4276 52.5929 67.2349C52.0879 67.0423 51.6507 66.7786 51.2786 66.4378C50.9065 66.097 50.6023 65.694 50.366 65.2258C50.1297 64.7576 49.9732 64.2449 49.8934 63.6878H48.5378V67.4216H46.426V58.339H48.5378V62.1232H49.8875ZM54.2616 65.8392C54.6249 65.8392 54.9498 65.7711 55.2333 65.6318C55.5169 65.4925 55.7561 65.294 55.9481 65.0391C56.14 64.7843 56.2877 64.4731 56.3852 64.1057C56.4856 63.7412 56.5329 63.3293 56.5329 62.8789C56.5329 62.4284 56.4827 62.0225 56.3852 61.658C56.2848 61.2905 56.14 60.9823 55.9481 60.7245C55.7561 60.4697 55.5169 60.2711 55.2333 60.1318C54.9498 59.9926 54.6249 59.9244 54.2616 59.9244C53.8984 59.9244 53.5676 59.9955 53.287 60.1318C53.0064 60.2711 52.7672 60.4697 52.5752 60.7245C52.3832 60.9794 52.2355 61.2905 52.1381 61.658C52.0377 62.0225 51.9904 62.4314 51.9904 62.8789C51.9904 63.3263 52.0406 63.7412 52.1381 64.1057C52.2385 64.4731 52.3832 64.7813 52.5752 65.0391C52.7672 65.294 53.0064 65.4925 53.287 65.6318C53.5676 65.7711 53.8924 65.8392 54.2616 65.8392Z" fill="#575452"/>
<path d="M70.9605 58.3394C71.5985 58.3394 72.1449 58.4164 72.6027 58.5675C73.0605 58.7187 73.4385 58.9291 73.7339 59.1928C74.0292 59.4595 74.2478 59.7736 74.3895 60.1351C74.5313 60.4967 74.6022 60.8878 74.6022 61.3086C74.6022 61.762 74.5284 62.1769 74.3836 62.5562C74.2389 62.9355 74.0174 63.2585 73.7191 63.5281C73.4208 63.7978 73.0428 64.0082 72.585 64.1623C72.1272 64.3134 71.5867 64.3905 70.9605 64.3905H69.8678V67.4279H67.7678V58.3453H70.9605V58.3394ZM70.9605 62.7962C71.5069 62.7962 71.8998 62.6658 72.1419 62.4021C72.3812 62.1413 72.5023 61.7739 72.5023 61.3057C72.5023 61.0982 72.4698 60.9086 72.4078 60.7367C72.3457 60.5648 72.2512 60.4196 72.1242 60.2981C71.9972 60.1766 71.8377 60.0818 71.6458 60.0136C71.4538 59.9484 71.2234 59.9129 70.9605 59.9129H69.8678V62.7932H70.9605V62.7962Z" fill="#575452"/>
<path d="M92.3852 62.8759C92.3852 63.5338 92.2729 64.1442 92.0455 64.7073C91.821 65.2733 91.5021 65.7652 91.0915 66.183C90.681 66.6008 90.1878 66.9268 89.6089 67.1639C89.03 67.4009 88.3891 67.5195 87.6862 67.5195C86.9832 67.5195 86.3394 67.4009 85.7605 67.1639C85.1816 66.9268 84.6854 66.5979 84.2719 66.183C83.8614 65.7652 83.5424 65.2733 83.315 64.7073C83.0905 64.1413 82.9753 63.5308 82.9753 62.8759C82.9753 62.221 83.0876 61.6076 83.315 61.0416C83.5424 60.4756 83.8614 59.9867 84.2719 59.5688C84.6854 59.154 85.1816 58.828 85.7605 58.591C86.3394 58.3539 86.9832 58.2354 87.6862 58.2354C88.3891 58.2354 89.03 58.3539 89.6089 58.5939C90.1878 58.8339 90.681 59.1599 91.0915 59.5748C91.5021 59.9896 91.8181 60.4816 92.0455 61.0475C92.27 61.6135 92.3852 62.221 92.3852 62.8759ZM90.235 62.8759C90.235 62.4255 90.1759 62.0225 90.0608 61.6639C89.9456 61.3054 89.7772 61.0001 89.5616 60.7512C89.3431 60.5023 89.0773 60.3097 88.7642 60.1763C88.4482 60.043 88.0908 59.9778 87.6891 59.9778C87.2874 59.9778 86.9212 60.043 86.6052 60.1763C86.2892 60.3097 86.0204 60.4993 85.8048 60.7512C85.5862 61.0001 85.4208 61.3054 85.3056 61.6639C85.1905 62.0225 85.1314 62.4285 85.1314 62.8759C85.1314 63.3234 85.1905 63.7353 85.3056 64.0938C85.4208 64.4524 85.5892 64.7576 85.8048 65.0066C86.0233 65.2555 86.2892 65.4451 86.6052 65.5755C86.9212 65.7059 87.2845 65.7711 87.6891 65.7711C88.0937 65.7711 88.4482 65.7059 88.7642 65.5755C89.0802 65.4451 89.346 65.2555 89.5616 65.0066C89.7802 64.7576 89.9456 64.4524 90.0608 64.0938C90.1759 63.7353 90.235 63.3293 90.235 62.8759Z" fill="#575452"/>
<path d="M5.78003 58.123V58.3127C5.78003 63.46 9.93559 67.6294 15.0599 67.6294H15.2401V58.123H5.78003Z" fill="#AD442A"/>
</g>
</g>
<defs>
<clipPath id="clip0_745_1363">
<rect width="115" height="72" fill="white"/>
</clipPath>
</defs>
</svg>
