<svg width="52" height="50" viewBox="0 0 52 50" fill="none" xmlns="http://www.w3.org/2000/svg">
<rect x="7" y="6" width="38" height="38" rx="6" fill="white"/>
<path fill-rule="evenodd" clip-rule="evenodd" d="M13 0C5.8203 0 0 5.8203 0 13V37C0 44.1797 5.8203 50 13 50H39C46.1797 50 52 44.1797 52 37V13C52 5.8203 46.1797 0 39 0H13ZM7 25C7 14.55 15.55 6 26 6C36.45 6 45 14.55 45 25C45 35.45 36.45 44 26 44C15.55 44 7 35.45 7 25ZM33.3889 36.6111C34.55 36.6111 35.5 35.6611 35.5 34.5V15.5C35.5 14.3389 34.55 13.3889 33.3889 13.3889H18.6111C17.45 13.3889 16.5 14.3389 16.5 15.5V34.5C16.5 35.6611 17.45 36.6111 18.6111 36.6111H33.3889ZM19.6667 25V22.8889H32.3333V25H19.6667ZM19.6667 17.6111V19.7222H32.3333V17.6111H19.6667ZM28.1111 30.9111L30.5389 28.4833C30.9611 28.0611 31.5944 28.0611 32.0167 28.4833C32.4389 28.9056 32.4389 29.5389 32.0167 29.9611L28.85 33.1278C28.6389 33.3389 28.3222 33.4444 28.1111 33.4444C27.9 33.4444 27.5833 33.3389 27.3722 33.1278L25.2611 31.0167C24.8389 30.5944 24.8389 29.9611 25.2611 29.5389C25.6833 29.1167 26.3167 29.1167 26.7389 29.5389L28.1111 30.9111Z" fill="#B85F49"/>
</svg>
