<svg width="50" height="50" viewBox="0 0 50 50" fill="none" xmlns="http://www.w3.org/2000/svg">
<g clip-path="url(#clip0_974_2504)">
<path fill-rule="evenodd" clip-rule="evenodd" d="M50 25C50 38.8069 38.8069 50 25 50C11.1931 50 0 38.8069 0 25C0 11.1931 11.1931 0 25 0C38.8069 0 50 11.1931 50 25M16.6667 12.5C19.7351 12.5 22.2222 14.9871 22.2222 18.0556C22.2222 21.124 19.7351 23.6111 16.6667 23.6111C13.5982 23.6111 11.1111 21.124 11.1111 18.0556C11.1111 14.9871 13.5982 12.5 16.6667 12.5ZM16.6667 15.2778C15.1323 15.2778 13.8889 16.5212 13.8889 18.0556C13.8889 19.5899 15.1323 20.8333 16.6667 20.8333C18.201 20.8333 19.4444 19.5899 19.4444 18.0556C19.4444 16.5212 18.201 15.2778 16.6667 15.2778ZM33.3333 26.3889C36.4018 26.3889 38.8889 28.876 38.8889 31.9444C38.8889 35.0129 36.4018 37.5 33.3333 37.5C30.2649 37.5 27.7778 35.0129 27.7778 31.9444C27.7778 28.876 30.2649 26.3889 33.3333 26.3889ZM33.3333 29.1667C31.799 29.1667 30.5556 30.4101 30.5556 31.9444C30.5556 33.4788 31.799 34.7222 33.3333 34.7222C34.8677 34.7222 36.1111 33.4788 36.1111 31.9444C36.1111 30.4101 34.8677 29.1667 33.3333 29.1667ZM14.871 37.0932L37.0932 14.871C37.6356 14.3286 37.6356 13.4492 37.0932 12.9068C36.5508 12.3644 35.6714 12.3644 35.129 12.9068L12.9068 35.129C12.3644 35.6714 12.3644 36.5508 12.9068 37.0932C13.4492 37.6356 14.3286 37.6356 14.871 37.0932Z" fill="#B85F49"/>
</g>
<defs>
<clipPath id="clip0_974_2504">
<rect width="50" height="50" fill="white"/>
</clipPath>
</defs>
</svg>
