<svg width="52" height="50" viewBox="0 0 52 50" fill="none" xmlns="http://www.w3.org/2000/svg">
<rect x="7" y="6" width="38" height="38" rx="6" fill="white"/>
<path fill-rule="evenodd" clip-rule="evenodd" d="M0 13C0 5.8203 5.8203 0 13 0H39C46.1797 0 52 5.8203 52 13V37C52 44.1797 46.1797 50 39 50H13C5.8203 50 0 44.1797 0 37V13ZM26 44C36.4933 44 45 35.4933 45 25C45 14.5067 36.4933 6 26 6C15.5067 6 7 14.5067 7 25C7 35.4933 15.5067 44 26 44ZM15.3536 22.7982C15.3536 18.1344 19.1343 14.3537 23.798 14.3537C28.4618 14.3537 32.2425 18.1344 32.2425 22.7982C32.2425 24.6634 31.6378 26.3873 30.6137 27.7846L35.9506 33.1216C36.4453 33.6162 36.4453 34.4182 35.9506 34.9129C35.456 35.4076 34.6539 35.4076 34.1593 34.9129L28.8281 29.5817C27.4231 30.6252 25.6826 31.2426 23.798 31.2426C19.1343 31.2426 15.3536 27.4619 15.3536 22.7982ZM24.5673 16.4772C23.9843 16.4772 23.5118 16.9498 23.5118 17.5328C23.5118 18.1157 23.9843 18.5883 24.5673 18.5883C26.462 18.5883 27.9979 20.1242 27.9979 22.0189C27.9979 22.6018 28.4705 23.0744 29.0534 23.0744C29.6364 23.0744 30.109 22.6018 30.109 22.0189C30.109 18.9583 27.6279 16.4772 24.5673 16.4772Z" fill="#B85F49"/>
</svg>
