<svg width="343" height="197" viewBox="0 0 343 197" fill="none" xmlns="http://www.w3.org/2000/svg">
<path d="M26.1418 195.958C26.4863 192.513 28.0929 188.841 29.5172 185.758C35.3455 173.142 41.5486 160.708 47.4217 148.115C52.7082 136.779 58.8341 125.862 64.0788 114.507C68.649 104.612 72.0894 94.3356 76.3698 84.3481C77.972 80.6095 79.2145 74.4038 81.9099 71.3233C82.5033 70.6452 82.2768 73.1006 82.2768 74.0017C82.2768 77.6798 82.1457 81.3373 81.9099 85.0085C80.2251 111.244 81.3232 137.506 79.4884 163.744C79.0784 169.608 77.9335 187.153 77.6539 181.282C77.4535 177.074 73.5157 172.757 70.9764 169.761C65.1085 162.839 55.313 158.657 46.9448 155.783C33.1541 151.046 19.382 151.05 5.04531 151.05C3.67557 151.05 -0.433661 151.05 0.936082 151.05C13.93 151.05 26.7028 150.935 39.5702 148.775C75.9627 142.665 111.459 130.847 147.217 121.771C154.972 119.803 162.555 117.265 170.332 115.387C172.178 114.942 176.894 112.844 178.99 113.443C179.251 113.518 176.593 117.627 176.312 118.103C171.014 127.069 164.335 136.179 157.344 143.859C145.467 156.903 133.191 169.149 118.086 178.493C112.566 181.908 105.363 185.736 98.7871 186.675C94.9231 187.227 96.1454 183.688 96.1454 180.768C96.1454 172.959 102.647 168.585 110.051 167.303C118.714 165.804 127.77 166.037 134.78 171.522C137.493 173.646 139.74 178.677 143.842 175.999C152.761 170.174 158.537 159.571 169.158 156.113C171.436 155.371 174.461 154.679 176.862 155.159C179.034 155.593 180.549 157.185 182.659 157.654C188.073 158.857 188.943 156.743 192.896 153.398C195.146 151.494 198.238 152.199 199.83 154.499C204.283 160.93 213.749 155.581 219.899 158.314C221.019 158.812 223.332 159.651 224.669 158.828C227.08 157.344 228.902 152.781 230.136 150.426C234.551 141.997 238.216 132.963 242.096 124.266C247.317 112.565 253.468 101.069 259.267 89.6314C260.631 86.9407 262.011 81.6777 264.22 79.4684C264.535 79.1532 265.153 82.7426 265.174 83.064C265.413 86.6463 265.211 90.2976 265.211 93.8874C265.211 105.555 265.211 117.222 265.211 128.889C265.211 130.54 265.108 132.229 265.211 133.879C265.273 134.873 266.411 133.202 266.458 133.145C270.602 128.097 273.746 122.177 277.025 116.562C308 63.5127 305.736 50.8627 342 1" stroke="#0028B6" stroke-width="2" stroke-linecap="round"/>
</svg>
