<svg width="28" height="28" viewBox="0 0 28 28" fill="none" xmlns="http://www.w3.org/2000/svg">
<path d="M14 0C21.7323 0 28 6.26774 28 14C28 21.7323 21.7323 28 14 28C6.26774 28 0 21.7323 0 14C0 6.26774 6.26774 0 14 0ZM18.8294 19.7065C19.0869 18.9164 20.2933 11.0423 20.4424 9.49078C20.4875 9.02087 20.339 8.70861 20.048 8.56922C19.6962 8.4 19.1751 8.48461 18.5707 8.70252C17.7417 9.00139 7.14304 13.5015 6.5307 13.762C5.95 14.0085 5.40096 14.2776 5.40096 14.6671C5.40096 14.941 5.56348 15.095 6.01148 15.2551C6.47774 15.4213 7.65191 15.7774 8.34522 15.9685C9.01296 16.153 9.77322 15.9929 10.1993 15.7281C10.651 15.4475 15.8632 11.9597 16.2376 11.6541C16.6113 11.3485 16.9096 11.7399 16.604 12.0461C16.2984 12.3517 12.7205 15.8243 12.2488 16.3051C11.676 16.8889 12.0826 17.4939 12.4667 17.7362C12.9056 18.0125 16.0617 20.1296 16.537 20.4692C17.0124 20.8089 17.4945 20.9629 17.9358 20.9629C18.3771 20.9629 18.6096 20.3816 18.8294 19.7065Z" fill="#CECECE"/>
</svg>
