<svg width="28" height="29" viewBox="0 0 28 29" fill="none" xmlns="http://www.w3.org/2000/svg">
<path fill-rule="evenodd" clip-rule="evenodd" d="M0.35615 28.02C0.262044 28.02 0.17079 27.9829 0.103062 27.9145C0.0139468 27.8239 -0.0209863 27.6921 0.0125211 27.5701L1.89392 20.7004C0.727583 18.6287 0.11233 16.276 0.113756 13.8877C0.116608 6.22952 6.34827 0 14.0058 0C17.7201 0.00142585 21.2099 1.44795 23.8327 4.07293C26.4555 6.69862 27.8992 10.1877 27.8978 13.8977C27.8949 21.5552 21.6626 27.7854 14.0058 27.7854C11.7323 27.7847 9.48299 27.2237 7.4868 26.1621L0.446691 28.0079C0.416748 28.0164 0.386805 28.02 0.35615 28.02ZM9.86075 7.64595C10.1024 7.65593 10.3691 7.66734 10.6222 8.23055C10.799 8.6236 11.099 9.36344 11.3332 9.94106C11.4974 10.3462 11.6294 10.6715 11.6637 10.7415C11.7486 10.9104 11.8049 11.1079 11.6923 11.3339C11.6753 11.3679 11.6595 11.4 11.6445 11.4306C11.5601 11.6031 11.4978 11.7301 11.3543 11.8978C11.2965 11.9652 11.2367 12.0378 11.177 12.1103C11.0617 12.2505 10.9468 12.3902 10.8467 12.4903C10.6771 12.6592 10.501 12.8424 10.6984 13.1804C10.8959 13.519 11.5746 14.6262 12.5798 15.5223C13.6595 16.4847 14.5974 16.8919 15.074 17.0988C15.168 17.1396 15.244 17.1726 15.2996 17.2005C15.6376 17.3702 15.835 17.3417 16.0325 17.1157C16.23 16.8904 16.8781 16.1283 17.1033 15.7904C17.3293 15.4517 17.5546 15.5081 17.8647 15.6207C18.1749 15.7333 19.8381 16.5511 20.176 16.7207C20.2433 16.7545 20.3061 16.7849 20.3642 16.813C20.5981 16.9262 20.7561 17.0026 20.8241 17.1157C20.9082 17.2569 20.9082 17.9334 20.6266 18.7233C20.345 19.5133 18.9641 20.2747 18.3438 20.331C18.2842 20.3364 18.2249 20.3434 18.1639 20.3505C17.5907 20.4179 16.8672 20.5029 14.2852 19.4847C11.1079 18.2315 9.01287 15.1264 8.5802 14.4852C8.54473 14.4326 8.52043 14.3966 8.50763 14.3795L8.50533 14.3764C8.32799 14.14 7.1267 12.5385 7.1267 10.8819C7.1267 9.32507 7.89183 8.50902 8.24434 8.13304C8.26859 8.10717 8.2909 8.08339 8.31086 8.06159C8.62098 7.72295 8.98742 7.63811 9.21271 7.63811C9.2288 7.63811 9.24489 7.63811 9.26097 7.6381C9.47003 7.63806 9.67738 7.63801 9.86075 7.64595Z" fill="#CECECE"/>
</svg>
